<svg width="21" height="14" viewBox="0 0 21 14" fill="none" xmlns="http://www.w3.org/2000/svg">
<path opacity="0.7" fill-rule="evenodd" clip-rule="evenodd" d="M12.8332 1.09123C12.3878 0.764629 11.762 0.860906 11.4354 1.30627C11.1088 1.75164 11.2051 2.37744 11.6505 2.70404L16.1451 6.00006H1.10928C0.556999 6.00006 0.109283 6.44778 0.109283 7.00006C0.109283 7.55235 0.556999 8.00006 1.10928 8.00006H16.145L11.6505 11.2961C11.2051 11.6227 11.1088 12.2485 11.4354 12.6938C11.762 13.1392 12.3878 13.2355 12.8332 12.9089L19.7809 7.81392C19.7873 7.80934 19.7936 7.80469 19.7999 7.79997L20.8907 7.00006L19.7994 6.1998C19.7935 6.19532 19.7875 6.19091 19.7814 6.18656L12.8332 1.09123Z" fill="white"/>
</svg>
