<svg width="840" height="676" viewBox="0 0 840 676" fill="none" xmlns="http://www.w3.org/2000/svg">
<path fill-rule="evenodd" clip-rule="evenodd" d="M465.565 4.49816C465.542 2.0255 467.527 0 470 0C472.473 0 474.459 2.02552 474.435 4.49822L474.209 28.5881C474.208 28.7795 474.361 28.9362 474.553 28.9381C474.744 28.9401 474.898 29.097 474.896 29.2885L472.769 223.779C472.768 223.887 472.68 223.974 472.572 223.973C472.464 223.972 472.375 224.059 472.374 224.167L472.124 250.78C472.113 251.942 471.162 252.875 470 252.875C468.838 252.875 467.887 251.942 467.876 250.78L467.626 224.167C467.625 224.059 467.537 223.972 467.428 223.973C467.32 223.974 467.232 223.887 467.231 223.779L465.104 29.2885C465.102 29.097 465.256 28.9401 465.447 28.9381C465.639 28.9362 465.793 28.7795 465.791 28.588L465.565 4.49816ZM384.896 12.2713C384.445 9.8341 386.052 7.49105 388.493 7.06336C390.934 6.63568 393.248 8.29203 393.652 10.7374L433.829 253.759C434.015 254.885 433.251 255.948 432.127 256.145C431.002 256.342 429.926 255.601 429.719 254.479L384.896 12.2713ZM546.348 10.7374C546.752 8.29202 549.066 6.63568 551.507 7.06336C553.949 7.49105 555.555 9.8341 555.104 12.2713L510.281 254.479C510.074 255.601 508.998 256.342 507.873 256.145C506.749 255.948 505.985 254.885 506.171 253.759L546.348 10.7374ZM625.078 30.9795C625.903 28.642 628.47 27.4151 630.8 28.2632C633.129 29.1113 634.302 31.6999 633.432 34.021L546.943 264.664C546.544 265.729 545.357 266.269 544.288 265.879C543.219 265.49 542.655 264.314 543.034 263.241L625.078 30.9795ZM306.568 34.021C305.698 31.6999 306.871 29.1113 309.2 28.2632C311.53 27.4151 314.097 28.642 314.923 30.9794L396.966 263.241C397.345 264.314 396.781 265.49 395.712 265.879C394.643 266.269 393.456 265.729 393.057 264.664L306.568 34.021ZM699.031 64.6506C700.25 62.4964 702.987 61.7371 705.129 62.9767C707.272 64.2163 707.975 66.9661 706.715 69.0967L694.517 89.7236C694.385 89.9466 694.459 90.2343 694.681 90.3665C694.788 90.4297 694.823 90.5674 694.76 90.674L595.424 258.042C595.369 258.134 595.251 258.164 595.159 258.109C595.067 258.055 594.948 258.085 594.894 258.177L581.327 281.119C580.745 282.102 579.477 282.427 578.488 281.855C577.499 281.283 577.149 280.021 577.711 279.027L590.834 255.839C590.889 255.742 590.854 255.618 590.757 255.563C590.668 255.513 590.637 255.401 590.687 255.312L686.222 85.8757C686.316 85.7087 686.528 85.6496 686.695 85.7439C686.862 85.8383 687.074 85.7795 687.168 85.6126L699.031 64.6506ZM233.285 69.0967C232.025 66.9662 232.728 64.2163 234.871 62.9767C237.013 61.7371 239.75 62.4964 240.969 64.6506L252.832 85.6126C252.926 85.7796 253.138 85.8383 253.305 85.744C253.472 85.6496 253.684 85.7087 253.778 85.8758L349.308 255.304C349.361 255.397 349.328 255.515 349.235 255.567C349.142 255.62 349.109 255.738 349.162 255.831L362.289 279.027C362.851 280.021 362.501 281.283 361.512 281.855C360.523 282.427 359.255 282.102 358.674 281.119L345.106 258.178C345.052 258.086 344.933 258.055 344.841 258.11C344.749 258.164 344.631 258.134 344.576 258.042L245.302 90.7793C245.205 90.6146 245.259 90.4018 245.424 90.3041C245.589 90.2065 245.643 89.9938 245.546 89.8289L233.285 69.0967ZM765.875 110.584C767.447 108.676 770.27 108.403 772.162 109.992C774.055 111.582 774.272 114.409 772.664 116.287L612.454 303.389C611.708 304.26 610.398 304.361 609.519 303.623C608.641 302.885 608.514 301.577 609.243 300.692L765.875 110.584ZM167.336 116.287C165.728 114.409 165.945 111.582 167.838 109.993C169.73 108.403 172.553 108.676 174.125 110.584L330.757 300.692C331.486 301.577 331.359 302.885 330.481 303.623C329.603 304.361 328.292 304.26 327.546 303.389L167.336 116.287ZM823.713 167.336C825.591 165.728 828.418 165.945 830.007 167.838C831.597 169.73 831.324 172.553 829.416 174.125L639.308 330.757C638.423 331.486 637.115 331.359 636.377 330.481C635.639 329.603 635.74 328.292 636.611 327.546L823.713 167.336ZM110.584 174.125C108.676 172.553 108.403 169.73 109.992 167.838C111.582 165.945 114.409 165.728 116.287 167.336L303.389 327.546C304.26 328.292 304.361 329.603 303.623 330.481C302.885 331.359 301.577 331.486 300.692 330.757L110.584 174.125ZM870.903 233.285C873.034 232.025 875.784 232.728 877.023 234.871C878.263 237.013 877.504 239.75 875.349 240.969L854.44 252.802C854.244 252.913 854.175 253.162 854.286 253.358C854.364 253.496 854.315 253.671 854.177 253.749L684.696 349.308C684.603 349.361 684.485 349.328 684.433 349.235C684.38 349.142 684.262 349.109 684.169 349.162L660.973 362.289C659.979 362.851 658.717 362.501 658.145 361.512C657.573 360.523 657.898 359.255 658.881 358.673L681.827 345.104C681.916 345.051 681.946 344.935 681.893 344.845C681.837 344.751 681.868 344.63 681.962 344.574L849.221 245.302C849.385 245.205 849.598 245.259 849.696 245.424C849.794 245.589 850.006 245.643 850.171 245.546L870.903 233.285ZM64.6506 240.969C62.4964 239.75 61.7371 237.013 62.9767 234.871C64.2163 232.728 66.9661 232.025 69.0967 233.285L89.8289 245.546C89.9937 245.643 90.2064 245.589 90.3041 245.424C90.4017 245.259 90.6145 245.205 90.7792 245.303L258.042 344.576C258.134 344.631 258.164 344.749 258.109 344.841C258.055 344.933 258.085 345.052 258.177 345.106L281.119 358.674C282.102 359.255 282.427 360.523 281.855 361.512C281.283 362.501 280.021 362.851 279.027 362.289L255.831 349.162C255.738 349.109 255.62 349.142 255.567 349.235C255.515 349.328 255.397 349.361 255.304 349.308L85.8757 253.778C85.7086 253.684 85.6496 253.472 85.7439 253.305C85.8382 253.138 85.7795 252.926 85.6126 252.832L64.6506 240.969ZM30.9794 314.923C28.642 314.097 27.4151 311.53 28.2632 309.2C29.1113 306.871 31.6999 305.698 34.0211 306.568L264.664 393.057C265.729 393.456 266.269 394.643 265.879 395.712C265.49 396.781 264.314 397.345 263.241 396.966L30.9794 314.923ZM905.979 306.568C908.3 305.698 910.889 306.871 911.737 309.2C912.585 311.53 911.358 314.097 909.021 314.923L676.759 396.966C675.686 397.345 674.51 396.781 674.121 395.712C673.732 394.643 674.271 393.456 675.336 393.057L905.979 306.568ZM10.7374 393.652C8.29203 393.248 6.63568 390.934 7.06336 388.493C7.49105 386.051 9.8341 384.445 12.2713 384.896L254.479 429.719C255.601 429.926 256.342 431.002 256.145 432.127C255.948 433.251 254.885 434.015 253.759 433.829L10.7374 393.652ZM927.729 384.896C930.166 384.445 932.509 386.051 932.937 388.493C933.364 390.934 931.708 393.248 929.263 393.652L686.241 433.829C685.115 434.015 684.052 433.251 683.855 432.127C683.658 431.002 684.399 429.926 685.521 429.719L927.729 384.896ZM0 470C0 467.527 2.02554 465.541 4.49826 465.565L28.5881 465.791C28.7795 465.793 28.9362 465.639 28.9381 465.447C28.94 465.256 29.097 465.102 29.2884 465.104L223.779 467.231C223.887 467.232 223.974 467.32 223.973 467.428C223.972 467.537 224.058 467.625 224.167 467.626L250.78 467.876C251.942 467.887 252.875 468.838 252.875 470C252.875 471.162 251.942 472.113 250.78 472.124L224.167 472.374C224.059 472.375 223.972 472.464 223.973 472.572C223.974 472.68 223.887 472.768 223.779 472.769L29.2885 474.896C29.097 474.898 28.94 474.744 28.9381 474.553C28.9362 474.361 28.7795 474.207 28.588 474.209L4.49813 474.435C2.02548 474.458 0 472.473 0 470ZM935.502 465.565C937.975 465.542 940 467.527 940 470C940 472.473 937.975 474.459 935.502 474.435L911.412 474.209C911.221 474.208 911.064 474.361 911.062 474.553C911.06 474.744 910.903 474.898 910.712 474.896L716.221 472.769C716.113 472.768 716.026 472.68 716.027 472.572C716.028 472.464 715.941 472.375 715.833 472.374L689.22 472.124C688.058 472.113 687.125 471.162 687.125 470C687.125 469.824 687.125 469.649 687.125 469.473C687.123 468.602 687.822 467.889 688.693 467.881L715.833 467.626C715.942 467.625 716.028 467.537 716.027 467.428C716.026 467.32 716.113 467.232 716.221 467.231L910.712 465.104C910.903 465.102 911.06 465.256 911.062 465.447C911.064 465.639 911.221 465.793 911.412 465.791L935.502 465.565ZM12.2713 555.104C9.83409 555.555 7.49105 553.949 7.06336 551.507C6.63568 549.066 8.29203 546.752 10.7374 546.348L253.759 506.171C254.885 505.985 255.948 506.749 256.145 507.873C256.342 508.998 255.601 510.074 254.479 510.281L12.2713 555.104ZM929.263 546.348C931.708 546.752 933.364 549.066 932.937 551.507C932.509 553.949 930.166 555.555 927.729 555.104L685.521 510.281C684.399 510.074 683.658 508.998 683.855 507.873C684.052 506.749 685.115 505.985 686.241 506.171L929.263 546.348ZM34.0211 633.432C31.6999 634.302 29.1113 633.129 28.2632 630.8C27.4152 628.47 28.642 625.903 30.9795 625.078L263.241 543.034C264.314 542.655 265.49 543.219 265.879 544.288C266.269 545.357 265.729 546.544 264.664 546.943L34.0211 633.432ZM909.021 625.077C911.358 625.903 912.585 628.47 911.737 630.8C910.889 633.129 908.3 634.302 905.979 633.432L675.336 546.943C674.271 546.544 673.732 545.357 674.121 544.288C674.51 543.219 675.686 542.655 676.759 543.034L909.021 625.077ZM69.0967 706.715C66.9662 707.975 64.2163 707.272 62.9767 705.129C61.7371 702.987 62.4964 700.25 64.6506 699.031L85.6126 687.168C85.7795 687.074 85.8382 686.862 85.7439 686.695C85.6496 686.528 85.7087 686.316 85.8757 686.222L255.304 590.692C255.397 590.639 255.515 590.672 255.567 590.765C255.62 590.858 255.738 590.891 255.831 590.839L279.027 577.711C280.021 577.149 281.283 577.499 281.855 578.488C282.427 579.477 282.102 580.745 281.119 581.326L258.177 594.894C258.085 594.948 258.055 595.067 258.109 595.159C258.164 595.251 258.134 595.369 258.042 595.424L90.8552 694.653C90.6486 694.775 90.3816 694.707 90.2591 694.5C90.1863 694.377 90.0277 694.337 89.9048 694.409L69.0967 706.715ZM875.349 699.031C877.504 700.25 878.263 702.987 877.023 705.129C875.784 707.272 873.034 707.975 870.903 706.715L850.094 694.408C849.972 694.336 849.814 694.377 849.742 694.499C849.619 694.706 849.351 694.775 849.143 694.651L681.958 595.424C681.867 595.369 681.836 595.251 681.891 595.159C681.945 595.067 681.915 594.948 681.823 594.894L658.881 581.327C657.898 580.745 657.573 579.477 658.145 578.488C658.717 577.499 659.979 577.149 660.973 577.711L684.169 590.838C684.262 590.891 684.38 590.858 684.433 590.765C684.485 590.672 684.603 590.639 684.696 590.692L854.124 686.222C854.291 686.316 854.351 686.528 854.256 686.695C854.162 686.862 854.221 687.074 854.388 687.168L875.349 699.031ZM829.416 765.875C831.324 767.447 831.597 770.27 830.008 772.162C828.418 774.055 825.591 774.272 823.713 772.664L636.611 612.454C635.74 611.708 635.639 610.398 636.377 609.519C637.115 608.641 638.423 608.514 639.308 609.243L829.416 765.875ZM116.287 772.664C114.409 774.272 111.582 774.055 109.993 772.162C108.403 770.27 108.676 767.447 110.584 765.875L300.692 609.243C301.577 608.514 302.885 608.641 303.623 609.519C304.361 610.398 304.26 611.708 303.389 612.454L116.287 772.664ZM772.664 823.713C774.272 825.591 774.055 828.418 772.162 830.007C770.27 831.597 767.447 831.324 765.875 829.416L609.243 639.308C608.514 638.423 608.641 637.115 609.519 636.377C610.398 635.639 611.708 635.74 612.454 636.611L772.664 823.713ZM174.125 829.416C172.553 831.324 169.73 831.597 167.838 830.008C165.945 828.418 165.728 825.591 167.336 823.713L327.546 636.611C328.292 635.74 329.603 635.639 330.481 636.377C331.359 637.115 331.486 638.423 330.757 639.308L174.125 829.416ZM240.969 875.349C239.75 877.504 237.013 878.263 234.871 877.023C232.728 875.784 232.025 873.034 233.285 870.903L245.546 850.171C245.643 850.006 245.589 849.794 245.424 849.696C245.259 849.598 245.205 849.386 245.303 849.221L344.576 681.958C344.631 681.867 344.749 681.836 344.841 681.891C344.933 681.945 345.052 681.915 345.106 681.823L358.673 658.881C359.255 657.898 360.523 657.573 361.512 658.145C362.501 658.717 362.851 659.979 362.289 660.973L349.162 684.169C349.109 684.262 349.142 684.38 349.235 684.433C349.328 684.485 349.361 684.603 349.308 684.696L253.778 854.124C253.684 854.291 253.472 854.351 253.305 854.256C253.138 854.162 252.926 854.221 252.832 854.388L240.969 875.349ZM706.715 870.903C707.975 873.034 707.272 875.784 705.129 877.023C702.987 878.263 700.25 877.504 699.031 875.349L687.168 854.387C687.074 854.221 686.862 854.162 686.695 854.256C686.528 854.35 686.316 854.291 686.222 854.124L590.692 684.696C590.639 684.603 590.672 684.485 590.765 684.433C590.858 684.38 590.891 684.262 590.838 684.169L577.711 660.973C577.149 659.979 577.499 658.717 578.488 658.145C579.477 657.573 580.745 657.898 581.327 658.881L594.894 681.823C594.948 681.915 595.067 681.945 595.159 681.891C595.251 681.836 595.369 681.867 595.424 681.958L694.698 849.221C694.795 849.385 694.741 849.598 694.576 849.696C694.411 849.794 694.357 850.006 694.454 850.171L706.715 870.903ZM314.923 909.021C314.097 911.358 311.53 912.585 309.2 911.737C306.871 910.889 305.698 908.3 306.568 905.979L393.057 675.336C393.456 674.271 394.643 673.732 395.712 674.121C396.781 674.51 397.345 675.686 396.966 676.759L314.923 909.021ZM633.432 905.979C634.302 908.3 633.129 910.889 630.8 911.737C628.47 912.585 625.903 911.358 625.078 909.021L543.034 676.759C542.655 675.686 543.219 674.51 544.288 674.121C545.357 673.732 546.544 674.271 546.943 675.336L633.432 905.979ZM393.652 929.263C393.248 931.708 390.934 933.364 388.493 932.937C386.051 932.509 384.445 930.166 384.896 927.729L429.719 685.521C429.926 684.399 431.002 683.658 432.127 683.855C433.251 684.052 434.015 685.115 433.829 686.241L393.652 929.263ZM555.104 927.729C555.555 930.166 553.949 932.509 551.507 932.937C549.066 933.364 546.752 931.708 546.348 929.263L506.171 686.241C505.985 685.115 506.749 684.052 507.873 683.855C508.998 683.658 510.074 684.399 510.281 685.521L555.104 927.729ZM470 940C467.527 940 465.541 937.975 465.565 935.502L465.791 911.412C465.793 911.221 465.639 911.064 465.447 911.062C465.256 911.06 465.102 910.903 465.104 910.712L467.231 716.221C467.232 716.113 467.32 716.026 467.428 716.027C467.536 716.028 467.625 715.942 467.626 715.833L467.887 688.071C467.891 687.543 468.323 687.12 468.851 687.122C469.234 687.124 469.617 687.125 470 687.125C471.162 687.125 472.113 688.058 472.124 689.22L472.374 715.833C472.375 715.942 472.463 716.028 472.572 716.027C472.68 716.026 472.768 716.113 472.769 716.221L474.896 910.712C474.898 910.903 474.744 911.06 474.553 911.062C474.361 911.064 474.207 911.221 474.209 911.412L474.435 935.502C474.458 937.975 472.473 940 470 940ZM588.64 44.9309C588.619 45.007 588.663 45.0858 588.739 45.107C588.815 45.1283 588.86 45.207 588.839 45.283L537.134 230.37C536.729 231.822 535.226 232.669 533.77 232.279C532.314 231.89 531.431 230.405 531.803 228.945L579.312 42.8785C579.35 42.7287 579.503 42.6382 579.652 42.6766C579.802 42.7149 579.955 42.6249 579.993 42.4753L580.281 41.3579C580.48 40.5903 581.262 40.1284 582.029 40.3289C584.023 40.8502 586.012 41.3852 587.996 41.9337C588.756 42.1438 589.2 42.9321 588.987 43.6917L588.64 44.9309ZM360.104 42.4961C360.136 42.6219 360.265 42.6978 360.391 42.6655C360.517 42.6333 360.645 42.7094 360.677 42.8354L408.197 228.945C408.569 230.405 407.686 231.89 406.23 232.279C404.774 232.669 403.271 231.822 402.866 230.37L351.173 45.3253C351.146 45.226 351.204 45.123 351.303 45.0953C351.402 45.0676 351.46 44.9645 351.433 44.8652L351.106 43.6942C350.898 42.9483 351.335 42.1748 352.081 41.9693C353.083 41.6935 354.086 41.421 355.091 41.1517C356.094 40.8828 357.098 40.6174 358.103 40.3557C358.854 40.1601 359.62 40.6128 359.813 41.3642L360.104 42.4961ZM785.167 161.063C785.07 161.158 785.069 161.313 785.163 161.409C785.258 161.506 785.256 161.661 785.16 161.756L647.862 296.055C646.78 297.113 645.047 297.093 643.977 296.023C642.907 294.953 642.887 293.22 643.945 292.138L778.306 154.777C778.367 154.716 778.466 154.715 778.528 154.775C778.59 154.836 778.689 154.835 778.749 154.773L779.67 153.832C780.238 153.25 781.17 153.24 781.75 153.81C783.197 155.235 784.634 156.67 786.063 158.115C786.636 158.695 786.627 159.63 786.045 160.201L785.167 161.063ZM161.063 154.833C161.158 154.93 161.313 154.931 161.409 154.837C161.506 154.742 161.661 154.744 161.756 154.84L296.055 292.138C297.113 293.22 297.093 294.953 296.023 296.023C294.953 297.093 293.22 297.113 292.138 296.055L154.777 161.694C154.716 161.634 154.714 161.534 154.775 161.472C154.836 161.411 154.834 161.311 154.773 161.251L153.832 160.33C153.25 159.762 153.24 158.83 153.81 158.25C155.235 156.804 156.67 155.366 158.115 153.937C158.695 153.364 159.63 153.373 160.201 153.955L161.063 154.833ZM897.504 360.104C897.378 360.137 897.302 360.265 897.335 360.391C897.367 360.517 897.291 360.645 897.165 360.677L711.055 408.197C709.595 408.569 708.11 407.686 707.721 406.23C707.332 404.774 708.178 403.271 709.63 402.866L894.675 351.173C894.774 351.146 894.877 351.204 894.905 351.303C894.932 351.402 895.036 351.461 895.135 351.433L896.306 351.106C897.052 350.898 897.825 351.335 898.031 352.081C898.307 353.083 898.579 354.086 898.849 355.091C899.117 356.094 899.383 357.098 899.645 358.103C899.84 358.854 899.387 359.62 898.636 359.813L897.504 360.104ZM44.9308 351.36C45.0069 351.381 45.0858 351.337 45.107 351.261C45.1282 351.185 45.207 351.14 45.2831 351.162L230.37 402.866C231.822 403.271 232.669 404.774 232.279 406.23C231.89 407.686 230.405 408.57 228.945 408.197L42.8784 360.688C42.7286 360.65 42.6382 360.497 42.6765 360.348C42.7148 360.198 42.6248 360.046 42.4753 360.007L41.3578 359.719C40.5903 359.521 40.1283 358.738 40.3289 357.971C40.8502 355.977 41.3851 353.988 41.9336 352.004C42.1438 351.244 42.9321 350.801 43.6917 351.013L44.9308 351.36ZM895.069 588.64C894.993 588.619 894.914 588.663 894.893 588.739C894.872 588.815 894.793 588.86 894.717 588.839L709.63 537.134C708.178 536.729 707.332 535.226 707.721 533.77C708.11 532.315 709.595 531.431 711.055 531.803L897.122 579.312C897.271 579.35 897.362 579.503 897.323 579.653C897.285 579.802 897.375 579.955 897.525 579.993L898.642 580.282C899.41 580.48 899.872 581.263 899.671 582.029C899.15 584.023 898.615 586.012 898.067 587.996C897.856 588.756 897.068 589.2 896.308 588.987L895.069 588.64ZM42.496 579.896C42.6219 579.864 42.6978 579.735 42.6655 579.61C42.6333 579.484 42.7094 579.355 42.8354 579.323L228.945 531.803C230.405 531.431 231.89 532.315 232.279 533.77C232.668 535.226 231.822 536.729 230.37 537.134L45.3253 588.827C45.2259 588.855 45.1229 588.797 45.0952 588.697C45.0675 588.598 44.9646 588.54 44.8652 588.567L43.6941 588.894C42.9482 589.102 42.1748 588.666 41.9692 587.919C41.6934 586.918 41.4209 585.914 41.1517 584.91C40.8827 583.906 40.6174 582.902 40.3557 581.897C40.1601 581.147 40.6128 580.381 41.3643 580.187L42.496 579.896ZM778.937 785.167C778.842 785.07 778.687 785.069 778.591 785.163C778.494 785.258 778.339 785.256 778.244 785.16L643.945 647.862C642.887 646.78 642.907 645.047 643.977 643.977C645.047 642.907 646.78 642.887 647.862 643.945L785.223 778.306C785.285 778.367 785.286 778.466 785.225 778.528C785.164 778.59 785.166 778.689 785.227 778.749L786.169 779.67C786.75 780.238 786.76 781.171 786.19 781.75C784.766 783.197 783.331 784.634 781.885 786.063C781.305 786.636 780.37 786.627 779.799 786.045L778.937 785.167ZM154.833 778.937C154.93 778.842 154.931 778.687 154.837 778.591C154.742 778.494 154.744 778.339 154.84 778.245L292.138 643.945C293.22 642.887 294.953 642.907 296.023 643.977C297.093 645.047 297.113 646.78 296.055 647.862L161.694 785.223C161.633 785.285 161.534 785.286 161.472 785.225C161.411 785.165 161.311 785.166 161.251 785.228L160.33 786.169C159.762 786.75 158.83 786.76 158.25 786.19C156.804 784.766 155.366 783.331 153.937 781.885C153.364 781.305 153.373 780.37 153.955 779.799L154.833 778.937ZM351.36 895.069C351.381 894.993 351.337 894.914 351.261 894.893C351.185 894.872 351.14 894.793 351.162 894.717L402.866 709.63C403.271 708.178 404.774 707.332 406.23 707.721C407.686 708.11 408.569 709.595 408.197 711.055L360.688 897.122C360.65 897.271 360.497 897.362 360.348 897.324C360.198 897.285 360.046 897.375 360.007 897.525L359.719 898.642C359.521 899.41 358.738 899.872 357.971 899.671C355.977 899.15 353.988 898.615 352.004 898.067C351.244 897.856 350.801 897.068 351.013 896.309L351.36 895.069ZM579.896 897.504C579.864 897.378 579.735 897.302 579.609 897.335C579.483 897.367 579.355 897.291 579.323 897.165L531.803 711.055C531.431 709.595 532.314 708.11 533.77 707.721C535.226 707.332 536.729 708.178 537.134 709.63L588.827 894.675C588.854 894.774 588.796 894.877 588.697 894.905C588.598 894.933 588.54 895.036 588.567 895.135L588.894 896.306C589.102 897.052 588.666 897.825 587.919 898.031C586.917 898.307 585.914 898.579 584.91 898.849C583.906 899.117 582.902 899.383 581.897 899.645C581.147 899.84 580.381 899.387 580.187 898.636L579.896 897.504ZM872.469 282.425C873.523 284.692 872.512 287.378 870.234 288.409L786.066 326.501C784.305 327.298 782.231 326.513 781.416 324.761C780.601 323.008 781.34 320.922 783.084 320.089L866.456 280.284C868.713 279.206 871.415 280.158 872.469 282.425ZM833.751 215.278C835.185 217.325 834.658 220.146 832.596 221.559L756.38 273.78C754.786 274.872 752.61 274.463 751.502 272.881C750.394 271.299 750.756 269.117 752.326 267.993L827.455 214.22C829.488 212.765 832.317 213.23 833.751 215.278ZM724.62 106.282C726.663 107.711 727.132 110.534 725.682 112.563L671.958 187.739C670.834 189.311 668.65 189.673 667.066 188.565C665.483 187.458 665.074 185.282 666.166 183.687L718.355 107.439C719.764 105.381 722.576 104.852 724.62 106.282ZM657.68 67.634C659.94 68.6892 660.888 71.3883 659.81 73.6375L619.872 156.959C619.036 158.702 616.948 159.436 615.197 158.618C613.446 157.801 612.667 155.728 613.467 153.969L651.709 69.855C652.741 67.5845 655.42 66.5787 657.68 67.634ZM508.721 27.6215C511.211 27.8396 513.028 30.0564 512.785 32.5445L503.78 124.495C503.592 126.417 501.883 127.821 499.959 127.652C498.035 127.484 496.593 125.804 496.742 123.878L503.858 31.7627C504.051 29.2701 506.23 27.4033 508.721 27.6215ZM431.21 27.664C433.7 27.4433 435.876 29.3083 436.071 31.8007L443.285 123.906C443.436 125.833 441.999 127.515 440.073 127.686C438.148 127.857 436.431 126.454 436.241 124.53L427.146 32.5917C426.899 30.1038 428.72 27.8847 431.21 27.664ZM282.425 67.5308C284.692 66.4767 287.378 67.4883 288.409 69.766L326.501 153.935C327.298 155.696 326.513 157.769 324.761 158.584C323.008 159.399 320.922 158.66 320.089 156.916L280.284 73.5439C279.206 71.2878 280.158 68.5848 282.425 67.5308ZM215.278 106.249C217.325 104.815 220.146 105.342 221.559 107.405L273.78 183.621C274.872 185.214 274.463 187.39 272.881 188.498C271.299 189.606 269.117 189.244 267.993 187.674L214.22 112.545C212.765 110.512 213.23 107.684 215.278 106.249ZM106.282 215.381C107.711 213.337 110.534 212.868 112.563 214.319L187.738 268.042C189.311 269.166 189.673 271.35 188.565 272.934C187.458 274.517 185.282 274.926 183.687 273.835L107.439 221.645C105.381 220.236 104.852 217.425 106.282 215.381ZM67.6339 282.32C68.6891 280.061 71.3883 279.113 73.6374 280.191L156.959 320.129C158.702 320.964 159.436 323.053 158.618 324.803C157.801 326.554 155.728 327.333 153.969 326.533L69.8549 288.292C67.5844 287.259 66.5787 284.58 67.6339 282.32ZM27.6214 431.279C27.8396 428.789 30.0564 426.972 32.5445 427.216L124.495 436.22C126.417 436.408 127.821 438.117 127.652 440.041C127.484 441.965 125.804 443.407 123.878 443.259L31.7627 436.142C29.2701 435.949 27.4033 433.77 27.6214 431.279ZM27.664 508.79C27.4433 506.3 29.3082 504.124 31.8007 503.929L123.906 496.715C125.833 496.564 127.515 498.002 127.686 499.927C127.857 501.853 126.454 503.569 124.53 503.759L32.5917 512.855C30.1037 513.101 27.8846 511.28 27.664 508.79ZM67.5308 657.575C66.4767 655.308 67.4883 652.622 69.7659 651.591L153.935 613.499C155.696 612.702 157.769 613.487 158.584 615.24C159.399 616.992 158.66 619.078 156.916 619.911L73.5438 659.717C71.2877 660.794 68.5848 659.842 67.5308 657.575ZM106.249 724.723C104.815 722.675 105.342 719.854 107.404 718.441L183.621 666.22C185.214 665.128 187.39 665.537 188.498 667.119C189.606 668.701 189.244 670.883 187.674 672.007L112.545 725.78C110.512 727.236 107.683 726.77 106.249 724.723ZM215.381 833.719C213.337 832.289 212.868 829.466 214.319 827.437L268.042 752.262C269.166 750.69 271.35 750.328 272.934 751.435C274.517 752.543 274.926 754.719 273.835 756.313L221.645 832.561C220.236 834.62 217.424 835.148 215.381 833.719ZM282.32 872.366C280.061 871.311 279.113 868.612 280.191 866.363L320.129 783.041C320.964 781.298 323.053 780.565 324.803 781.382C326.554 782.2 327.333 784.272 326.533 786.031L288.291 870.145C287.259 872.416 284.58 873.422 282.32 872.366ZM431.279 912.379C428.789 912.161 426.972 909.944 427.216 907.456L436.22 815.505C436.408 813.583 438.117 812.179 440.041 812.348C441.965 812.516 443.407 814.196 443.259 816.122L436.142 908.237C435.949 910.73 433.77 912.597 431.279 912.379ZM508.79 912.336C506.3 912.557 504.124 910.692 503.929 908.2L496.715 816.095C496.564 814.167 498.002 812.485 499.927 812.314C501.853 812.144 503.569 813.547 503.759 815.47L512.855 907.409C513.101 909.896 511.28 912.116 508.79 912.336ZM657.575 872.469C655.308 873.523 652.622 872.512 651.591 870.234L613.499 786.066C612.702 784.305 613.487 782.231 615.24 781.416C616.992 780.602 619.078 781.34 619.911 783.084L659.717 866.456C660.794 868.713 659.842 871.415 657.575 872.469ZM724.723 833.751C722.675 835.185 719.854 834.658 718.441 832.596L666.22 756.38C665.128 754.786 665.537 752.61 667.119 751.503C668.701 750.395 670.883 750.756 672.007 752.326L725.78 827.456C727.235 829.489 726.77 832.317 724.723 833.751ZM833.719 724.62C832.289 726.663 829.466 727.132 827.437 725.682L752.262 671.958C750.69 670.834 750.328 668.65 751.435 667.066C752.543 665.483 754.718 665.074 756.313 666.166L832.561 718.355C834.62 719.764 835.148 722.576 833.719 724.62ZM872.366 657.68C871.311 659.94 868.612 660.888 866.363 659.81L783.041 619.872C781.298 619.036 780.564 616.948 781.382 615.197C782.2 613.446 784.272 612.667 786.031 613.467L870.145 651.709C872.416 652.741 873.422 655.42 872.366 657.68ZM912.379 508.721C912.161 511.211 909.944 513.028 907.456 512.785L815.505 503.78C813.583 503.592 812.179 501.883 812.348 499.959C812.516 498.035 814.196 496.593 816.122 496.742L908.238 503.858C910.73 504.051 912.597 506.23 912.379 508.721ZM912.336 431.21C912.557 433.7 910.692 435.876 908.2 436.071L816.095 443.285C814.167 443.436 812.485 441.999 812.314 440.073C812.144 438.148 813.547 436.431 815.47 436.241L907.409 427.146C909.896 426.899 912.116 428.72 912.336 431.21Z" fill="url(#paint0_linear_78_18)"/>
<defs>
<linearGradient id="paint0_linear_78_18" x1="1133.77" y1="-705" x2="1977.49" y2="667.437" gradientUnits="userSpaceOnUse">
<stop stop-color="#EC1919"/>
<stop offset="0.229167" stop-color="#D1C234"/>
<stop offset="0.489583" stop-color="#D134A5"/>
<stop offset="0.729167" stop-color="#3734D1"/>
<stop offset="1" stop-color="#23B632"/>
</linearGradient>
</defs>
</svg>
