<svg width="318" height="318" viewBox="0 0 318 318" fill="none" xmlns="http://www.w3.org/2000/svg">
<path fill-rule="evenodd" clip-rule="evenodd" d="M157.5 1.52171C157.492 0.685216 158.163 0 159 0C159.837 0 160.508 0.685231 160.5 1.52174L160.424 9.67138C160.423 9.73612 160.475 9.7891 160.54 9.78976C160.605 9.79042 160.657 9.84352 160.656 9.90832L159.937 75.7041C159.936 75.7406 159.907 75.7699 159.87 75.7696C159.833 75.7692 159.803 75.7986 159.803 75.8351L159.719 84.8384C159.715 85.2316 159.393 85.547 159 85.547C158.607 85.547 158.285 85.2316 158.281 84.8384L158.197 75.8352C158.197 75.7986 158.167 75.7692 158.13 75.7696C158.093 75.7699 158.064 75.7406 158.063 75.7041L157.344 9.90834C157.343 9.84352 157.395 9.79042 157.46 9.78976C157.525 9.7891 157.577 9.73611 157.576 9.67137L157.5 1.52171ZM130.209 4.15136C130.057 3.32686 130.6 2.53421 131.426 2.38952C132.252 2.24484 133.035 2.80518 133.172 3.63245L146.764 85.846C146.826 86.227 146.568 86.5867 146.188 86.6533C145.807 86.72 145.443 86.4693 145.373 86.0896L130.209 4.15136ZM184.828 3.63245C184.965 2.80518 185.748 2.24484 186.574 2.38952C187.4 2.53421 187.943 3.32686 187.791 4.15136L172.627 86.0896C172.557 86.4693 172.193 86.72 171.812 86.6533C171.432 86.5867 171.173 86.227 171.236 85.846L184.828 3.63245ZM211.462 10.4803C211.742 9.68954 212.61 9.27448 213.398 9.56139C214.186 9.84829 214.583 10.724 214.289 11.5093L185.03 89.5352C184.895 89.8957 184.493 90.0781 184.131 89.9464C183.77 89.8147 183.579 89.4167 183.707 89.0538L211.462 10.4803ZM103.711 11.5092C103.417 10.724 103.814 9.84829 104.602 9.56139C105.39 9.27448 106.258 9.68954 106.538 10.4803L134.293 89.0538C134.421 89.4168 134.23 89.8147 133.868 89.9464C133.507 90.0781 133.105 89.8957 132.97 89.5353L103.711 11.5092ZM236.481 21.8712C236.893 21.1424 237.819 20.8855 238.544 21.3049C239.269 21.7242 239.506 22.6545 239.08 23.3753L234.932 30.389C234.899 30.4447 234.918 30.5167 234.974 30.5497C235.029 30.5827 235.048 30.6547 235.015 30.7105L201.431 87.295C201.412 87.3261 201.372 87.3363 201.341 87.3179C201.31 87.2995 201.27 87.3098 201.251 87.3409L196.662 95.1019C196.465 95.4345 196.036 95.5445 195.701 95.3509C195.367 95.1573 195.248 94.7306 195.439 94.3943L199.879 86.5472C199.897 86.5157 199.886 86.4757 199.855 86.4579C199.823 86.4401 199.812 86.4002 199.83 86.3687L232.147 29.0517C232.179 28.9951 232.251 28.9751 232.307 29.0071C232.364 29.039 232.436 29.0191 232.467 28.9626L236.481 21.8712ZM78.9197 23.3753C78.4935 22.6545 78.7315 21.7243 79.4562 21.3049C80.181 20.8855 81.1069 21.1424 81.5194 21.8712L85.5326 28.9627C85.5645 29.0191 85.6361 29.039 85.6926 29.0071C85.7491 28.9752 85.8208 28.9951 85.8527 29.0517L118.17 86.3687C118.188 86.4002 118.177 86.4401 118.145 86.4579C118.114 86.4757 118.103 86.5156 118.121 86.5471L122.561 94.3942C122.752 94.7306 122.633 95.1573 122.299 95.3509C121.964 95.5445 121.535 95.4345 121.338 95.1019L116.749 87.3409C116.73 87.3098 116.69 87.2995 116.659 87.3179C116.628 87.3363 116.588 87.3261 116.569 87.295L82.9853 30.7105C82.9522 30.6548 82.9706 30.5827 83.0264 30.5497C83.0822 30.5167 83.1006 30.4447 83.0676 30.389L78.9197 23.3753ZM259.094 37.4104C259.626 36.765 260.581 36.6724 261.221 37.2102C261.861 37.7481 261.935 38.7043 261.391 39.3395L207.192 102.636C206.939 102.931 206.496 102.965 206.199 102.715C205.902 102.465 205.859 102.023 206.106 101.723L259.094 37.4104ZM56.6093 39.3396C56.0654 38.7044 56.1388 37.7481 56.7791 37.2102C57.4194 36.6724 58.3743 36.765 58.906 37.4104L111.894 101.723C112.141 102.023 112.098 102.465 111.801 102.715C111.504 102.965 111.06 102.931 110.808 102.636L56.6093 39.3396ZM278.66 56.6093C279.296 56.0654 280.252 56.1388 280.79 56.7791C281.328 57.4194 281.235 58.3743 280.59 58.906L216.277 111.894C215.977 112.141 215.535 112.098 215.285 111.801C215.035 111.504 215.069 111.06 215.364 110.808L278.66 56.6093ZM37.4104 58.906C36.765 58.3743 36.6724 57.4194 37.2102 56.7791C37.7481 56.1388 38.7043 56.0654 39.3395 56.6093L102.636 110.808C102.931 111.061 102.965 111.504 102.715 111.801C102.465 112.098 102.023 112.141 101.723 111.894L37.4104 58.906ZM294.625 78.9197C295.345 78.4935 296.276 78.7315 296.695 79.4562C297.114 80.181 296.858 81.1069 296.129 81.5194L289.037 85.5325C288.981 85.5645 288.961 85.6361 288.993 85.6926C289.025 85.7491 289.005 85.8208 288.948 85.8527L231.631 118.17C231.6 118.188 231.56 118.177 231.542 118.145C231.524 118.114 231.484 118.103 231.453 118.121L223.606 122.561C223.269 122.752 222.843 122.633 222.649 122.299C222.456 121.964 222.565 121.535 222.898 121.338L230.659 116.749C230.69 116.73 230.701 116.69 230.682 116.659C230.664 116.628 230.674 116.588 230.705 116.569L287.289 82.9853C287.345 82.9523 287.417 82.9707 287.45 83.0264C287.483 83.0822 287.555 83.1006 287.611 83.0676L294.625 78.9197ZM21.8712 81.5194C21.1424 81.1069 20.8855 80.181 21.3049 79.4563C21.7242 78.7315 22.6545 78.4935 23.3753 78.9198L30.389 83.0676C30.4447 83.1006 30.5166 83.0822 30.5497 83.0265C30.5827 82.9707 30.6547 82.9523 30.7105 82.9854L87.295 116.569C87.326 116.588 87.3363 116.628 87.3179 116.659C87.2995 116.69 87.3098 116.73 87.3409 116.749L95.1019 121.338C95.4345 121.535 95.5445 121.964 95.3509 122.299C95.1573 122.633 94.7306 122.752 94.3942 122.561L86.5471 118.121C86.5156 118.103 86.4757 118.114 86.4579 118.145C86.4401 118.177 86.4002 118.188 86.3687 118.17L29.0517 85.8528C28.9951 85.8209 28.9751 85.7491 29.0071 85.6926C29.039 85.6361 29.0191 85.5645 28.9626 85.5325L21.8712 81.5194ZM10.4803 106.538C9.68953 106.258 9.27448 105.39 9.56139 104.602C9.84829 103.814 10.724 103.417 11.5093 103.711L89.5353 132.97C89.8957 133.105 90.0781 133.507 89.9464 133.868C89.8147 134.23 89.4168 134.421 89.0538 134.293L10.4803 106.538ZM306.491 103.711C307.276 103.417 308.152 103.814 308.439 104.602C308.726 105.39 308.31 106.258 307.52 106.538L228.946 134.293C228.583 134.421 228.185 134.23 228.054 133.869C227.922 133.507 228.104 133.105 228.465 132.97L306.491 103.711ZM3.63245 133.172C2.80518 133.035 2.24484 132.252 2.38952 131.426C2.53421 130.6 3.32686 130.057 4.15136 130.209L86.0896 145.373C86.4693 145.443 86.72 145.807 86.6533 146.188C86.5867 146.568 86.227 146.826 85.846 146.764L3.63245 133.172ZM313.849 130.209C314.673 130.057 315.466 130.6 315.61 131.426C315.755 132.252 315.195 133.035 314.368 133.172L232.154 146.764C231.773 146.826 231.413 146.568 231.347 146.188C231.28 145.807 231.531 145.443 231.91 145.373L313.849 130.209ZM0 159C0 158.163 0.685239 157.492 1.52176 157.5L9.67138 157.576C9.7361 157.577 9.78908 157.525 9.78974 157.46C9.7904 157.395 9.84349 157.343 9.90829 157.344L75.7041 158.063C75.7406 158.064 75.7699 158.093 75.7695 158.13C75.7692 158.167 75.7985 158.197 75.8351 158.197L84.8384 158.281C85.2316 158.285 85.547 158.607 85.547 159C85.547 159.393 85.2316 159.715 84.8384 159.719L75.8351 159.803C75.7985 159.803 75.7692 159.833 75.7695 159.87C75.7699 159.907 75.7406 159.936 75.704 159.937L9.90832 160.656C9.8435 160.657 9.7904 160.605 9.78974 160.54C9.78908 160.475 9.73609 160.423 9.67134 160.424L1.52171 160.5C0.685216 160.508 0 159.837 0 159ZM316.478 157.5C317.315 157.492 318 158.163 318 159C318 159.837 317.315 160.508 316.478 160.5L308.329 160.424C308.264 160.423 308.211 160.475 308.21 160.54C308.21 160.605 308.156 160.657 308.092 160.656L242.296 159.937C242.259 159.936 242.23 159.907 242.23 159.87C242.231 159.833 242.201 159.803 242.165 159.803L232.775 159.715C232.595 159.713 232.451 159.566 232.452 159.387C232.452 159.328 232.453 159.27 232.453 159.211C232.453 159.141 232.453 159.07 232.453 159C232.453 158.607 232.768 158.285 233.162 158.281L242.165 158.197C242.201 158.197 242.231 158.167 242.23 158.13C242.23 158.093 242.259 158.064 242.296 158.063L308.092 157.344C308.157 157.343 308.21 157.395 308.21 157.46C308.211 157.525 308.264 157.577 308.329 157.576L316.478 157.5ZM4.15136 187.791C3.32686 187.943 2.53421 187.4 2.38952 186.574C2.24484 185.748 2.80518 184.965 3.63245 184.828L85.846 171.236C86.227 171.173 86.5867 171.432 86.6533 171.812C86.72 172.193 86.4693 172.557 86.0896 172.627L4.15136 187.791ZM314.368 184.828C315.195 184.965 315.755 185.748 315.61 186.574C315.466 187.4 314.673 187.943 313.849 187.791L231.91 172.627C231.531 172.557 231.28 172.193 231.347 171.812C231.413 171.432 231.773 171.173 232.154 171.236L314.368 184.828ZM11.5093 214.289C10.724 214.583 9.84829 214.186 9.56139 213.398C9.27449 212.61 9.68954 211.742 10.4803 211.462L89.0538 183.707C89.4168 183.579 89.8147 183.77 89.9464 184.132C90.0781 184.493 89.8957 184.895 89.5353 185.03L11.5093 214.289ZM307.52 211.462C308.31 211.742 308.726 212.61 308.439 213.398C308.152 214.186 307.276 214.583 306.491 214.289L228.465 185.03C228.104 184.895 227.922 184.493 228.054 184.131C228.185 183.77 228.583 183.579 228.946 183.707L307.52 211.462ZM23.3753 239.08C22.6545 239.507 21.7243 239.269 21.3049 238.544C20.8855 237.819 21.1424 236.893 21.8712 236.481L28.9626 232.467C29.0191 232.436 29.039 232.364 29.0071 232.307C28.9751 232.251 28.9951 232.179 29.0517 232.147L86.3687 199.83C86.4002 199.812 86.4401 199.823 86.4579 199.855C86.4757 199.886 86.5156 199.897 86.5471 199.879L94.3943 195.439C94.7306 195.248 95.1573 195.367 95.3509 195.701C95.5445 196.036 95.4345 196.465 95.1019 196.662L87.3409 201.251C87.3098 201.27 87.2995 201.31 87.3179 201.341C87.3363 201.372 87.326 201.412 87.295 201.431L30.7105 235.015C30.6547 235.048 30.5827 235.029 30.5497 234.974C30.5166 234.918 30.4447 234.899 30.389 234.932L23.3753 239.08ZM296.129 236.481C296.858 236.893 297.114 237.819 296.695 238.544C296.276 239.269 295.345 239.506 294.625 239.08L287.611 234.932C287.555 234.899 287.483 234.918 287.45 234.974C287.417 235.029 287.345 235.048 287.289 235.015L230.705 201.431C230.674 201.412 230.664 201.372 230.682 201.341C230.701 201.31 230.69 201.27 230.659 201.251L222.898 196.661C222.565 196.465 222.456 196.036 222.649 195.701C222.843 195.367 223.269 195.248 223.606 195.439L231.453 199.879C231.484 199.897 231.524 199.886 231.542 199.855C231.56 199.823 231.6 199.812 231.631 199.83L288.948 232.147C289.005 232.179 289.025 232.251 288.993 232.307C288.961 232.364 288.981 232.436 289.037 232.467L296.129 236.481ZM280.59 259.094C281.235 259.626 281.328 260.581 280.79 261.221C280.252 261.861 279.296 261.935 278.66 261.391L215.364 207.192C215.069 206.939 215.035 206.496 215.285 206.199C215.535 205.902 215.977 205.859 216.277 206.106L280.59 259.094ZM39.3395 261.391C38.7044 261.935 37.7481 261.861 37.2102 261.221C36.6724 260.581 36.765 259.626 37.4104 259.094L101.723 206.106C102.023 205.859 102.465 205.902 102.715 206.199C102.965 206.496 102.931 206.939 102.636 207.192L39.3395 261.391ZM261.391 278.66C261.935 279.296 261.861 280.252 261.221 280.79C260.581 281.328 259.626 281.235 259.094 280.59L206.106 216.277C205.859 215.977 205.902 215.535 206.199 215.285C206.496 215.035 206.939 215.069 207.192 215.364L261.391 278.66ZM58.906 280.59C58.3743 281.235 57.4194 281.328 56.7791 280.79C56.1388 280.252 56.0654 279.296 56.6093 278.66L110.808 215.364C111.061 215.069 111.504 215.035 111.801 215.285C112.098 215.535 112.141 215.977 111.894 216.277L58.906 280.59ZM81.5194 296.129C81.1069 296.858 80.181 297.114 79.4563 296.695C78.7315 296.276 78.4935 295.345 78.9198 294.625L83.0676 287.611C83.1006 287.555 83.0822 287.483 83.0264 287.45C82.9707 287.417 82.9523 287.345 82.9854 287.29L116.569 230.705C116.588 230.674 116.628 230.664 116.659 230.682C116.69 230.701 116.73 230.69 116.749 230.659L121.338 222.898C121.535 222.565 121.964 222.456 122.299 222.649C122.633 222.843 122.752 223.269 122.561 223.606L118.121 231.453C118.103 231.484 118.114 231.524 118.145 231.542C118.177 231.56 118.188 231.6 118.17 231.631L85.8527 288.948C85.8208 289.005 85.7491 289.025 85.6926 288.993C85.6361 288.961 85.5645 288.981 85.5326 289.037L81.5194 296.129ZM239.08 294.625C239.507 295.345 239.269 296.276 238.544 296.695C237.819 297.114 236.893 296.858 236.481 296.129L232.467 289.037C232.436 288.981 232.364 288.961 232.307 288.993C232.251 289.025 232.179 289.005 232.147 288.948L199.83 231.631C199.812 231.6 199.823 231.56 199.855 231.542C199.886 231.524 199.897 231.484 199.879 231.453L195.439 223.606C195.248 223.269 195.367 222.843 195.701 222.649C196.036 222.456 196.465 222.565 196.661 222.898L201.251 230.659C201.27 230.69 201.31 230.701 201.341 230.682C201.372 230.664 201.412 230.674 201.431 230.705L235.015 287.289C235.048 287.345 235.029 287.417 234.974 287.45C234.918 287.483 234.899 287.555 234.932 287.611L239.08 294.625ZM106.538 307.52C106.258 308.31 105.39 308.726 104.602 308.439C103.814 308.152 103.417 307.276 103.711 306.491L132.97 228.465C133.105 228.104 133.507 227.922 133.869 228.054C134.23 228.185 134.421 228.583 134.293 228.946L106.538 307.52ZM214.289 306.491C214.583 307.276 214.186 308.152 213.398 308.439C212.61 308.726 211.742 308.31 211.462 307.52L183.707 228.946C183.579 228.583 183.77 228.185 184.131 228.054C184.493 227.922 184.895 228.104 185.03 228.465L214.289 306.491ZM133.172 314.368C133.035 315.195 132.252 315.755 131.426 315.61C130.6 315.466 130.057 314.673 130.209 313.849L145.373 231.91C145.443 231.531 145.807 231.28 146.188 231.347C146.568 231.413 146.826 231.773 146.764 232.154L133.172 314.368ZM187.791 313.849C187.943 314.673 187.4 315.466 186.574 315.61C185.748 315.755 184.965 315.195 184.828 314.368L171.236 232.154C171.173 231.773 171.432 231.413 171.812 231.347C172.193 231.28 172.557 231.531 172.627 231.91L187.791 313.849ZM159 318C158.163 318 157.492 317.315 157.5 316.478L157.576 308.329C157.577 308.264 157.525 308.211 157.46 308.21C157.395 308.21 157.343 308.157 157.344 308.092L158.063 242.296C158.064 242.259 158.093 242.23 158.13 242.23C158.167 242.231 158.197 242.201 158.197 242.165L158.283 233.016C158.286 232.703 158.542 232.452 158.854 232.453C158.903 232.453 158.951 232.453 159 232.453C159.135 232.453 159.27 232.453 159.404 232.452C159.574 232.451 159.713 232.587 159.715 232.757L159.803 242.165C159.803 242.201 159.833 242.231 159.87 242.23C159.907 242.23 159.936 242.259 159.937 242.296L160.656 308.092C160.657 308.156 160.605 308.21 160.54 308.21C160.475 308.211 160.423 308.264 160.424 308.329L160.5 316.478C160.508 317.315 159.837 318 159 318ZM199.136 15.2C199.129 15.2258 199.144 15.2524 199.169 15.2596C199.195 15.2668 199.21 15.2935 199.203 15.3192L181.711 77.9338C181.574 78.4248 181.066 78.7113 180.573 78.5796C180.081 78.448 179.782 77.9456 179.908 77.4517L195.98 14.5057C195.993 14.455 196.045 14.4244 196.095 14.4374C196.146 14.4504 196.197 14.4199 196.21 14.3693L196.308 13.9913C196.375 13.7316 196.64 13.5753 196.899 13.6432C197.574 13.8195 198.247 14.0005 198.918 14.1861C199.175 14.2571 199.325 14.5238 199.253 14.7808L199.136 15.2ZM121.822 14.3763C121.833 14.4189 121.877 14.4446 121.919 14.4337C121.962 14.4228 122.005 14.4485 122.016 14.4911L138.092 77.4517C138.218 77.9456 137.919 78.448 137.427 78.5796C136.934 78.7113 136.426 78.4248 136.289 77.9338L118.801 15.3335C118.792 15.2999 118.811 15.265 118.845 15.2556C118.879 15.2463 118.898 15.2114 118.889 15.1778L118.779 14.7816C118.708 14.5293 118.856 14.2676 119.108 14.1981C119.447 14.1048 119.786 14.0126 120.126 13.9215C120.466 13.8305 120.806 13.7408 121.145 13.6522C121.399 13.5861 121.659 13.7392 121.724 13.9934L121.822 14.3763ZM265.62 54.4874C265.588 54.5194 265.587 54.5718 265.619 54.6045C265.651 54.6372 265.651 54.6896 265.618 54.7215L219.17 100.155C218.804 100.513 218.218 100.506 217.856 100.144C217.494 99.7821 217.487 99.1957 217.845 98.8298L263.299 52.3609C263.32 52.34 263.353 52.3396 263.374 52.3601C263.395 52.3806 263.429 52.3802 263.449 52.3593L263.761 52.0409C263.953 51.8443 264.268 51.8407 264.464 52.0336C264.954 52.5155 265.44 53.001 265.923 53.49C266.117 53.6862 266.114 54.0025 265.917 54.1957L265.62 54.4874ZM54.4874 52.3798C54.5194 52.4124 54.5718 52.4129 54.6045 52.3809C54.6371 52.3489 54.6896 52.3495 54.7215 52.3822L100.155 98.8298C100.513 99.1957 100.506 99.7821 100.144 100.144C99.7821 100.506 99.1957 100.513 98.8298 100.155L52.3609 54.7008C52.3399 54.6803 52.3396 54.6467 52.36 54.6258C52.3805 54.6048 52.3802 54.5713 52.3592 54.5508L52.0409 54.2394C51.8443 54.0471 51.8407 53.7318 52.0336 53.5358C52.5155 53.0463 53.001 52.5599 53.49 52.0767C53.6862 51.8828 54.0025 51.8858 54.1957 52.0827L54.4874 52.3798ZM303.624 121.822C303.581 121.833 303.555 121.877 303.566 121.919C303.577 121.962 303.552 122.005 303.509 122.016L240.548 138.092C240.054 138.218 239.552 137.919 239.42 137.427C239.289 136.934 239.575 136.426 240.066 136.289L302.667 118.801C302.7 118.792 302.735 118.811 302.744 118.845C302.754 118.879 302.789 118.898 302.822 118.889L303.218 118.779C303.471 118.708 303.732 118.856 303.802 119.108C303.895 119.447 303.987 119.786 304.079 120.126C304.17 120.466 304.259 120.806 304.348 121.145C304.414 121.399 304.261 121.659 304.007 121.724L303.624 121.822ZM15.2 118.864C15.2257 118.872 15.2524 118.857 15.2596 118.831C15.2668 118.805 15.2934 118.79 15.3192 118.797L77.9338 136.289C78.4248 136.426 78.7113 136.934 78.5796 137.427C78.4479 137.919 77.9456 138.218 77.4517 138.092L14.5057 122.02C14.455 122.007 14.4244 121.956 14.4374 121.905C14.4503 121.854 14.4199 121.803 14.3693 121.79L13.9913 121.692C13.7316 121.625 13.5753 121.36 13.6432 121.101C13.8195 120.426 14.0005 119.754 14.1861 119.082C14.2572 118.825 14.5238 118.675 14.7808 118.747L15.2 118.864ZM302.8 199.136C302.774 199.128 302.748 199.144 302.74 199.169C302.733 199.195 302.707 199.21 302.681 199.203L240.066 181.711C239.575 181.574 239.289 181.066 239.42 180.573C239.552 180.081 240.054 179.782 240.548 179.908L303.494 195.98C303.545 195.993 303.576 196.045 303.563 196.095C303.55 196.146 303.58 196.197 303.631 196.21L304.009 196.308C304.268 196.375 304.425 196.64 304.357 196.899C304.181 197.574 304 198.246 303.814 198.918C303.743 199.175 303.476 199.325 303.219 199.253L302.8 199.136ZM14.3763 196.178C14.4189 196.167 14.4446 196.123 14.4337 196.081C14.4227 196.038 14.4485 195.995 14.4911 195.984L77.4517 179.908C77.9456 179.782 78.4479 180.081 78.5796 180.573C78.7113 181.066 78.4248 181.574 77.9338 181.711L15.3334 199.199C15.2998 199.208 15.265 199.189 15.2556 199.155C15.2462 199.121 15.2114 199.102 15.1778 199.111L14.7816 199.222C14.5293 199.292 14.2677 199.144 14.1981 198.892C14.1048 198.553 14.0126 198.214 13.9215 197.874C13.8305 197.534 13.7408 197.194 13.6523 196.855C13.5861 196.601 13.7392 196.342 13.9934 196.276L14.3763 196.178ZM263.513 265.62C263.481 265.588 263.428 265.587 263.396 265.619C263.363 265.651 263.31 265.651 263.278 265.618L217.845 219.17C217.487 218.804 217.494 218.218 217.856 217.856C218.218 217.494 218.804 217.487 219.17 217.845L265.639 263.299C265.66 263.32 265.66 263.353 265.64 263.374C265.619 263.395 265.62 263.429 265.641 263.449L265.959 263.761C266.156 263.953 266.159 264.268 265.966 264.464C265.485 264.954 264.999 265.44 264.51 265.923C264.314 266.117 263.998 266.114 263.804 265.917L263.513 265.62ZM52.3798 263.513C52.4124 263.481 52.4129 263.428 52.3809 263.396C52.3489 263.363 52.3495 263.31 52.3822 263.278L98.8298 217.845C99.1957 217.487 99.7821 217.494 100.144 217.856C100.506 218.218 100.513 218.804 100.155 219.17L54.7007 265.639C54.6803 265.66 54.6467 265.66 54.6258 265.64C54.6049 265.619 54.5713 265.62 54.5508 265.641L54.2395 265.959C54.0471 266.156 53.7317 266.159 53.5357 265.966C53.0463 265.484 52.5599 264.999 52.0767 264.51C51.8828 264.314 51.8858 263.998 52.0827 263.804L52.3798 263.513ZM118.864 302.8C118.872 302.774 118.857 302.748 118.831 302.74C118.805 302.733 118.79 302.707 118.797 302.681L136.289 240.066C136.426 239.575 136.934 239.289 137.427 239.42C137.919 239.552 138.218 240.054 138.092 240.548L122.02 303.494C122.007 303.545 121.956 303.576 121.905 303.563C121.854 303.55 121.803 303.58 121.79 303.631L121.692 304.009C121.625 304.268 121.36 304.425 121.101 304.357C120.426 304.181 119.754 304 119.082 303.814C118.825 303.743 118.675 303.476 118.747 303.219L118.864 302.8ZM196.178 303.624C196.167 303.581 196.123 303.555 196.081 303.566C196.038 303.577 195.995 303.552 195.984 303.509L179.908 240.548C179.782 240.054 180.081 239.552 180.573 239.42C181.066 239.289 181.574 239.575 181.711 240.066L199.199 302.667C199.208 302.7 199.189 302.735 199.155 302.744C199.121 302.754 199.102 302.789 199.111 302.822L199.222 303.218C199.292 303.471 199.144 303.732 198.892 303.802C198.553 303.895 198.214 303.987 197.874 304.079C197.534 304.17 197.194 304.259 196.855 304.348C196.601 304.414 196.342 304.261 196.276 304.007L196.178 303.624ZM295.155 95.5438C295.511 96.3107 295.169 97.2194 294.398 97.5682L265.924 110.455C265.329 110.724 264.627 110.459 264.352 109.866C264.076 109.273 264.326 108.567 264.916 108.285L293.12 94.8193C293.884 94.4549 294.798 94.7769 295.155 95.5438ZM282.056 72.8279C282.541 73.5207 282.363 74.475 281.665 74.9531L255.882 92.6193C255.343 92.9886 254.607 92.8502 254.232 92.315C253.857 91.7799 253.979 91.0417 254.51 90.6614L279.926 72.4701C280.614 71.9778 281.571 72.1352 282.056 72.8279ZM245.137 35.9548C245.829 36.4384 245.987 37.3934 245.497 38.0799L227.322 63.5115C226.942 64.0434 226.203 64.1658 225.667 63.7912C225.131 63.4165 224.993 62.6804 225.362 62.141L243.018 36.3463C243.495 35.6501 244.446 35.4712 245.137 35.9548ZM222.492 22.8804C223.256 23.2374 223.577 24.1505 223.212 24.9114L209.701 53.099C209.419 53.6885 208.712 53.9368 208.12 53.6602C207.527 53.3836 207.264 52.6824 207.535 52.0873L220.472 23.6318C220.821 22.8637 221.727 22.5234 222.492 22.8804ZM172.099 9.34426C172.942 9.41806 173.556 10.168 173.474 11.0097L170.428 42.1163C170.364 42.7666 169.786 43.2415 169.135 43.1845C168.484 43.1275 167.996 42.5592 168.047 41.9078L170.454 10.7453C170.519 9.902 171.257 9.27046 172.099 9.34426ZM145.877 9.35865C146.72 9.284 147.456 9.91491 147.522 10.7581L149.962 41.917C150.013 42.569 149.527 43.1382 148.876 43.1959C148.224 43.2536 147.644 42.779 147.579 42.1282L144.502 11.0257C144.419 10.184 145.035 9.43331 145.877 9.35865ZM95.5438 22.8455C96.3108 22.4889 97.2195 22.8311 97.5682 23.6017L110.455 52.0757C110.724 52.6715 110.459 53.3729 109.866 53.6486C109.273 53.9243 108.567 53.6744 108.285 53.0843L94.8194 24.8797C94.4549 24.1165 94.7769 23.2021 95.5438 22.8455ZM72.828 35.9439C73.5208 35.4587 74.475 35.637 74.9531 36.3347L92.6193 62.1184C92.9886 62.6574 92.8502 63.3936 92.315 63.7684C91.7799 64.1432 91.0417 64.021 90.6614 63.4896L72.4701 38.0737C71.9778 37.3859 72.1352 36.4291 72.828 35.9439ZM35.9548 72.8628C36.4384 72.1714 37.3934 72.0129 38.0799 72.5035L63.5115 90.6782C64.0434 91.0583 64.1658 91.7973 63.7912 92.333C63.4165 92.8686 62.6804 93.0069 62.141 92.6377L36.3463 74.982C35.6501 74.5054 35.4712 73.5543 35.9548 72.8628ZM22.8804 95.5084C23.2374 94.7439 24.1505 94.4232 24.9114 94.7879L53.099 108.299C53.6885 108.581 53.9368 109.288 53.6602 109.88C53.3836 110.473 52.6824 110.736 52.0873 110.466L23.6318 97.5284C22.8637 97.1792 22.5234 96.2729 22.8804 95.5084ZM9.34427 145.901C9.41807 145.058 10.168 144.444 11.0097 144.526L42.1163 147.572C42.7666 147.636 43.2415 148.214 43.1845 148.865C43.1275 149.516 42.5592 150.004 41.9078 149.953L10.7453 147.546C9.902 147.481 9.27047 146.743 9.34427 145.901ZM9.35866 172.123C9.28401 171.28 9.91492 170.544 10.7581 170.478L41.917 168.038C42.569 167.987 43.1382 168.473 43.1959 169.124C43.2536 169.776 42.779 170.356 42.1282 170.421L11.0257 173.498C10.184 173.581 9.43331 172.965 9.35866 172.123ZM22.8455 222.456C22.4889 221.689 22.8311 220.781 23.6017 220.432L52.0757 207.545C52.6715 207.276 53.3729 207.541 53.6486 208.134C53.9243 208.727 53.6745 209.433 53.0843 209.715L24.8797 223.181C24.1165 223.545 23.2021 223.223 22.8455 222.456ZM35.9439 245.172C35.4587 244.479 35.637 243.525 36.3347 243.047L62.1185 225.381C62.6574 225.011 63.3936 225.15 63.7684 225.685C64.1432 226.22 64.021 226.958 63.4897 227.339L38.0736 245.53C37.3859 246.022 36.4291 245.865 35.9439 245.172ZM72.8628 282.045C72.1714 281.562 72.0129 280.607 72.5035 279.92L90.6782 254.489C91.0583 253.957 91.7973 253.834 92.333 254.209C92.8686 254.584 93.0069 255.32 92.6377 255.859L74.982 281.654C74.5054 282.35 73.5542 282.529 72.8628 282.045ZM95.5084 295.12C94.7439 294.763 94.4232 293.85 94.7879 293.089L108.299 264.901C108.581 264.312 109.288 264.063 109.88 264.34C110.473 264.616 110.736 265.318 110.466 265.913L97.5284 294.368C97.1792 295.136 96.2729 295.477 95.5084 295.12ZM145.901 308.656C145.058 308.582 144.444 307.832 144.526 306.99L147.572 275.884C147.636 275.233 148.214 274.759 148.865 274.816C149.516 274.873 150.004 275.441 149.953 276.092L147.546 307.255C147.481 308.098 146.743 308.73 145.901 308.656ZM172.123 308.641C171.28 308.716 170.544 308.085 170.478 307.242L168.038 276.083C167.987 275.431 168.473 274.862 169.124 274.804C169.776 274.746 170.356 275.221 170.421 275.872L173.498 306.974C173.581 307.816 172.965 308.567 172.123 308.641ZM222.456 295.155C221.689 295.511 220.781 295.169 220.432 294.398L207.545 265.924C207.276 265.329 207.541 264.627 208.134 264.352C208.727 264.076 209.433 264.326 209.715 264.916L223.181 293.12C223.545 293.884 223.223 294.798 222.456 295.155ZM245.172 282.056C244.479 282.541 243.525 282.363 243.047 281.665L225.381 255.882C225.011 255.343 225.15 254.607 225.685 254.232C226.22 253.857 226.958 253.979 227.339 254.51L245.53 279.926C246.022 280.614 245.865 281.571 245.172 282.056ZM282.045 245.137C281.562 245.829 280.607 245.987 279.92 245.497L254.489 227.322C253.957 226.942 253.834 226.203 254.209 225.667C254.584 225.131 255.32 224.993 255.859 225.362L281.654 243.018C282.35 243.495 282.529 244.446 282.045 245.137ZM295.12 222.492C294.763 223.256 293.85 223.577 293.089 223.212L264.901 209.701C264.312 209.419 264.063 208.712 264.34 208.12C264.616 207.527 265.318 207.264 265.913 207.535L294.368 220.472C295.136 220.821 295.477 221.727 295.12 222.492ZM308.656 172.099C308.582 172.942 307.832 173.556 306.99 173.474L275.884 170.428C275.233 170.364 274.759 169.786 274.816 169.135C274.873 168.484 275.441 167.996 276.092 168.047L307.255 170.454C308.098 170.519 308.73 171.257 308.656 172.099ZM308.641 145.877C308.716 146.72 308.085 147.456 307.242 147.522L276.083 149.962C275.431 150.013 274.862 149.527 274.804 148.876C274.746 148.224 275.221 147.644 275.872 147.579L306.974 144.502C307.816 144.419 308.567 145.035 308.641 145.877Z" fill="url(#paint0_linear_81_40)"/>
<defs>
<linearGradient id="paint0_linear_81_40" x1="383.553" y1="-238.5" x2="668.979" y2="225.792" gradientUnits="userSpaceOnUse">
<stop stop-color="#EC1919"/>
<stop offset="0.229167" stop-color="#D1C234"/>
<stop offset="0.489583" stop-color="#D134A5"/>
<stop offset="0.729167" stop-color="#3734D1"/>
<stop offset="1" stop-color="#23B632"/>
</linearGradient>
</defs>
</svg>
