<svg width="11" height="11" viewBox="0 0 11 11" fill="none" xmlns="http://www.w3.org/2000/svg">
<path fill-rule="evenodd" clip-rule="evenodd" d="M10.1056 8.6392C10.4974 9.02851 10.4993 9.66167 10.11 10.0534C9.72072 10.4451 9.08755 10.4471 8.69581 10.0578L5.20039 6.5841L1.70493 10.0578C1.31319 10.4472 0.68003 10.4452 0.290724 10.0534C-0.0985814 9.66171 -0.096609 9.02854 0.29513 8.63924L3.78175 5.17427L0.29513 1.70931C-0.096609 1.32 -0.0985814 0.686839 0.290724 0.295099C0.68003 -0.0966396 1.31319 -0.0986118 1.70493 0.290694L5.20039 3.76444L8.69581 0.290732C9.08755 -0.0985743 9.72072 -0.0966019 10.11 0.295137C10.4993 0.686876 10.4974 1.32004 10.1056 1.70934L6.61903 5.17427L10.1056 8.6392Z" fill="white"/>
</svg>
